HIERARCHY
ROOT Hips
{
	OFFSET -3.958830 18.904000 13.208200
	CHANNELS 6 Xposition Yposition Zposition Zrotation Yrotation Xrotation 
	JOINT LHipJoint
	{
		OFFSET 0.000000 0.000000 0.000000
		CHANNELS 3 Zrotation Yrotation Xrotation
		JOINT LeftUpLeg
		{
			OFFSET 1.800000 -1.400000 0.085000
			CHANNELS 3 Zrotation Yrotation Xrotation
			JOINT LeftLeg
			{
				OFFSET 2.215000 -6.000000 0.000000
				CHANNELS 3 Zrotation Yrotation Xrotation
				JOINT LeftFoot
				{
					OFFSET 2.500000 -6.900000 0.000000
					CHANNELS 3 Zrotation Yrotation Xrotation
					JOINT LeftToeBase
					{
						OFFSET 0.200000 -0.500000 1.950000
						CHANNELS 3 Zrotation Yrotation Xrotation
						End Site
						{
							OFFSET 0.000000 0.000000 0.000000
						}
					}
				}
			}
		}
	}
	JOINT RHipJoint
	{
		OFFSET 0.000000 0.000000 0.000000
		CHANNELS 3 Zrotation Yrotation Xrotation
		JOINT RightUpLeg
		{
			OFFSET -1.800000 -1.400000 0.085000
			CHANNELS 3 Zrotation Yrotation Xrotation
			JOINT RightLeg
			{
				OFFSET -2.215000 -6.000000 0.000000
				CHANNELS 3 Zrotation Yrotation Xrotation
				JOINT RightFoot
				{
					OFFSET -2.500000 -6.900000 0.000000
					CHANNELS 3 Zrotation Yrotation Xrotation
					JOINT RightToeBase
					{
						OFFSET -0.200000 -0.500000 1.950000
						CHANNELS 3 Zrotation Yrotation Xrotation
						End Site
						{
							OFFSET 0.000000 0.000000 0.000000
						}
					}
				}
			}
		}
	}
	JOINT LowerBack
	{
		OFFSET 0.000000 0.000000 0.000000
		CHANNELS 3 Zrotation Yrotation Xrotation
		JOINT Spine
		{
			OFFSET -0.087000 1.940000 -0.288900
			CHANNELS 3 Zrotation Yrotation Xrotation
			JOINT Spine1
			{
				OFFSET 0.000000 1.950000 0.060000
				CHANNELS 3 Zrotation Yrotation Xrotation
				JOINT Neck
				{
					OFFSET 0.000000 0.000000 0.000000
					CHANNELS 3 Zrotation Yrotation Xrotation
					JOINT Neck1
					{
						OFFSET 0.000000 1.600000 0.340000
						CHANNELS 3 Zrotation Yrotation Xrotation
						JOINT Head
						{
							OFFSET 0.000000 1.667000 -0.240000
							CHANNELS 3 Zrotation Yrotation Xrotation
							End Site
							{
								OFFSET 0.000000 0.000000 0.000000
							}
						}
					}
				}
				JOINT LeftShoulder
				{
					OFFSET 0.000000 0.000000 0.000000
					CHANNELS 3 Zrotation Yrotation Xrotation
					JOINT LeftArm
					{
						OFFSET 2.700000 1.550000 -0.730000
						CHANNELS 3 Zrotation Yrotation Xrotation
						JOINT LeftForeArm
						{
							OFFSET 5.450000 0.000000 0.000000
							CHANNELS 3 Zrotation Yrotation Xrotation
							JOINT LeftHand
							{
								OFFSET 3.450000 0.000000 0.000000
								CHANNELS 3 Zrotation Yrotation Xrotation
								JOINT LeftHandIndex1
								{
									OFFSET 0.750000 0.000000 0.000000
									CHANNELS 3 Zrotation Yrotation Xrotation
									End Site
									{
										OFFSET 0.000000 0.000000 0.000000
									}
								}
							}
						}
					}
				}
				JOINT RightShoulder
				{
					OFFSET 0.000000 0.000000 0.000000
					CHANNELS 3 Zrotation Yrotation Xrotation
					JOINT RightArm
					{
						OFFSET -2.700000 1.550000 -0.730000
						CHANNELS 3 Zrotation Yrotation Xrotation
						JOINT RightForeArm
						{
							OFFSET -5.450000 0.000000 0.000000
							CHANNELS 3 Zrotation Yrotation Xrotation
							JOINT RightHand
							{
								OFFSET -3.450000 0.000000 0.000000
								CHANNELS 3 Zrotation Yrotation Xrotation
								JOINT RightHandIndex1
								{
									OFFSET -0.750000 0.000000 0.000000
									CHANNELS 3 Zrotation Yrotation Xrotation
									End Site
									{
										OFFSET 0.000000 0.000000 0.000000
									}
								}
							}
						}
					}
				}
			}
		}
	}
}
MOTION
Frames: 8
Frame Time: 0.016667
21.973420 16.425330 -20.518150 1.605172 -21.408091 36.010865 -16.410417 9.004325 7.858065 34.158299 -10.900758 -64.970795 -17.094945 1.982748 -3.611237 0.877216 7.090990 4.128347 -3.952530 -4.650910 -3.192660 18.058674 -7.245913 2.393895 8.230278 5.594496 -24.818713 6.355702 -2.368712 -1.805247 2.512301 -4.797247 3.685552 -1.824800 5.033210 0.937740 -2.243264 -4.630257 -9.732624 3.835640 -17.317694 -0.332187 13.447075 -24.572251 -21.520237 2.913244 10.810597 -26.721247 19.126189 29.248691 -17.658468 4.410690 33.888660 48.120040 -38.034230 -35.224178 18.960502 21.116332 27.598502 8.883370 0.378987 5.240953 -1.053590 -8.195838 4.374934 -2.615500 3.922790 -3.485320 0.096960 18.918605 38.822216 -0.460261 10.968137 46.491339 13.702489 -10.456565 7.603874 -3.608761 2.574792 -2.416641 -1.570880 0.026440 2.006630 0.871790 
21.986460 16.430540 -20.554200 2.362418 -20.840181 34.901924 -16.488381 9.221697 8.102638 31.269908 -11.941100 -69.447709 -16.498601 4.248886 4.882328 0.747846 6.822858 4.012863 -3.699520 -4.404240 -2.831470 17.958934 -7.206321 2.415609 7.854114 5.482362 -25.010969 5.804916 -2.377428 -0.701681 2.335558 -4.445724 3.687719 -1.777880 4.563640 0.957840 -1.944203 -5.109139 -10.023416 2.520148 -17.172961 1.078853 12.130661 -23.974948 -20.801702 3.099942 11.728017 -27.665426 20.364233 26.165142 -15.900047 1.406840 33.608910 46.432660 -39.054303 -34.921585 19.552926 19.494141 28.459256 9.408682 0.506361 6.983698 -1.261065 -7.919852 3.937919 -2.357990 3.648320 -3.150320 0.018910 19.388692 38.549992 -0.444825 10.258574 45.517580 12.446592 -10.465085 9.830070 -3.279792 2.568834 -2.274207 -1.439100 -0.076580 1.866770 0.717910 
21.972720 16.414480 -20.556100 -0.098090 -23.455695 33.337809 -16.441204 9.376001 8.058832 34.297016 -9.551964 -62.313297 -23.031165 2.998082 -1.382522 0.874979 7.428409 3.553521 -3.411270 -4.216600 -2.243420 17.918036 -7.449281 2.494527 9.383739 5.118219 -22.799205 5.978546 -2.786218 0.777077 2.051014 -4.060063 3.697052 -1.850980 3.861380 0.825550 -1.965347 -4.778445 -10.175910 3.102918 -15.411373 2.262088 10.416914 -22.003416 -19.113889 4.245965 11.798463 -27.690781 20.848601 24.758505 -13.166135 -0.894580 37.337850 46.849400 -38.408516 -36.111234 20.367858 17.368374 26.198672 8.347794 1.228929 7.764581 -1.135096 -7.162478 3.652694 -1.831420 3.142580 -2.699100 -0.139790 17.077143 40.092560 -0.644835 13.253037 48.086373 15.261825 -8.010382 1.985082 -2.109833 3.009233 -1.955098 -1.375660 -0.199950 1.658830 0.424360 
21.964350 16.436380 -20.571440 -0.828462 -27.083127 28.804721 -16.275778 10.164061 7.898571 30.904442 -8.517181 -56.051051 -26.490201 3.291750 -1.985939 0.861116 7.273756 3.207829 -2.980940 -3.845970 -1.781290 17.877727 -7.819588 2.562173 8.731611 3.886120 -19.112677 5.854588 -3.303586 2.965849 1.598915 -3.509001 3.829015 -1.908910 2.932820 0.534380 -2.138358 -5.182473 -10.708154 3.839077 -14.729729 5.901152 5.247705 -18.814586 -14.685042 3.688267 14.516140 -35.123074 20.553134 21.275400 -4.307218 -2.992460 36.293510 49.776180 -36.759858 -39.716468 22.710218 8.696372 31.746448 7.765721 8.878613 14.691441 0.036968 -6.801835 2.434866 -1.068460 2.294370 -2.054990 -0.205820 12.736279 43.664522 5.863839 18.417699 51.909457 13.137240 -19.669459 -5.099060 -1.480461 3.517325 -1.515419 -1.226410 -0.198100 1.420310 0.204240 
21.937030 16.435730 -20.576180 -1.624870 -28.461583 25.808048 -16.379525 11.138745 7.971148 30.063380 -7.950007 -53.486699 -30.234838 3.957057 -0.492790 0.985353 7.421984 2.888007 -2.559220 -3.333240 -1.493150 17.759342 -7.362445 2.551810 9.319487 3.047543 -15.920921 4.959708 -3.284098 4.071473 1.313131 -3.222965 3.832445 -1.762200 2.366520 0.473470 -1.992613 -7.564485 -11.065116 3.647227 -16.561061 8.700927 7.190590 -21.600288 -2.262896 4.536497 16.475714 -47.162339 21.453780 20.046242 5.751809 -4.239710 35.147370 48.508250 -26.648529 -34.735227 14.395241 1.585978 25.585607 5.872859 -1.308455 22.219752 -1.610452 -6.624740 1.276694 -0.789600 1.860740 -1.643150 -0.194640 -1.841100 26.894874 40.100259 -80.298795 50.782586 -156.043071 -9.992531 8.568352 -0.258484 3.211772 -1.159036 -0.992420 -0.275650 1.186070 0.147460 
21.958860 16.440600 -20.559080 -2.016582 -29.174484 22.545579 -16.503949 11.670240 7.852821 27.502304 -8.020182 -51.515156 -32.326162 5.622294 3.389264 0.815503 7.724229 2.637849 -2.221970 -2.984530 -1.105950 17.446871 -7.453650 2.587349 9.368379 2.435566 -13.262525 4.238617 -3.496216 5.477644 1.045864 -3.121889 3.760266 -1.586580 1.943200 0.420340 -1.066226 -7.861353 -11.015754 1.199024 -17.436864 10.288551 5.012135 -21.318995 0.665414 6.880532 17.255642 -45.857848 23.193093 17.556395 8.111376 -8.365190 35.631580 41.817100 -29.531826 -35.651895 14.296531 -1.155333 31.079111 5.198945 1.231239 20.482954 -1.052970 -6.270403 1.161696 -0.465650 1.585610 -1.335100 -0.253700 -3.295011 30.262801 38.881605 -80.967235 53.144284 -155.446189 -5.772849 9.065386 -0.098234 1.926675 -2.233005 -0.952860 -0.235400 1.040320 -0.029490 
21.967620 16.456960 -20.557410 -2.808053 -30.453662 19.230825 -16.576819 12.121571 7.685698 26.294147 -7.897677 -48.568772 -34.480049 7.139953 6.521279 0.691174 8.274381 2.323412 -2.108260 -2.926190 -0.842460 17.285486 -7.480528 2.624694 9.697536 1.802909 -10.447159 3.064816 -3.730577 6.828526 0.854067 -3.146837 3.651393 -1.543800 1.694130 0.416080 -0.617500 -8.225275 -11.054554 -0.911307 -16.831441 12.891591 3.418068 -20.583164 3.324065 9.309699 17.898693 -45.741344 24.705036 15.362708 13.589893 -13.066510 37.290730 36.696980 -31.298419 -38.070477 14.663606 -1.676221 33.483264 5.780936 4.561481 19.590845 -0.505890 -6.208289 0.918210 -0.196770 1.426950 -1.134110 -0.367040 -6.730929 37.744104 33.344606 -76.392871 56.886836 -155.771706 -6.328773 7.493075 0.470780 0.709654 -2.465691 -0.982920 -0.183850 1.049790 -0.190910 
22.015740 16.453610 -20.544870 -4.152280 -31.070037 16.474034 -16.481586 12.330441 7.575269 25.627230 -8.467177 -46.356701 -36.380009 8.505100 10.209166 0.720292 8.472597 2.024522 -1.732010 -2.415470 -0.618950 17.303438 -7.634328 2.678870 9.844159 1.278486 -8.413782 2.797908 -4.051600 8.984776 0.553895 -3.116129 3.565837 -1.345150 1.240010 0.378160 -0.619831 -8.119479 -10.937670 -0.110379 -18.010083 16.171133 1.225191 -18.678963 3.480301 10.199396 17.156593 -45.865577 23.536258 11.643197 19.746227 -16.271040 34.336270 29.196720 -28.322076 -41.507071 15.544208 -5.330593 33.615870 5.194334 5.458047 17.765034 -0.133910 -5.746660 0.859443 0.026530 1.094400 -0.777650 -0.373320 -11.032738 44.464882 24.279829 -67.744420 63.834542 -154.435005 -4.069306 8.020302 0.736313 -0.006112 -2.537124 -0.784310 -0.182020 0.888000 -0.231030 
